<svg aria-hidden="true" style="position: absolute; width: 0; height: 0; overflow: hidden;" version="1.1" xmlns="http://www.w3.org/2000/svg" xmlns:xlink="http://www.w3.org/1999/xlink">
<defs>

<!-- <symbol id="icon-linkedin" viewBox="0 0 32 32">
<path d="M29 0h-26c-1.65 0-3 1.35-3 3v26c0 1.65 1.35 3 3 3h26c1.65 0 3-1.35 3-3v-26c0-1.65-1.35-3-3-3zM12 26h-4v-14h4v14zM10 10c-1.106 0-2-0.894-2-2s0.894-2 2-2c1.106 0 2 0.894 2 2s-0.894 2-2 2zM26 26h-4v-8c0-1.106-0.894-2-2-2s-2 0.894-2 2v8h-4v-14h4v2.481c0.825-1.131 2.087-2.481 3.5-2.481 2.488 0 4.5 2.238 4.5 5v9z"></path>
</symbol> -->
<symbol id="icon-linkedin" viewBox="0 0 32 32">
<path fill="77b3d4" style="fill: var(--color5, #77b3d4)" d="M16 0c8.837 0 16 7.164 16 16s-7.163 16-16 16-16-7.164-16-16 7.163-16 16-16z"></path>
<path fill="#fff" style="fill: var(--color3, #fff)" d="M9.016 21.984h2.996v-9.986h-2.996v9.986zM20.688 11.652c-1.454 0-2.755 0.531-3.678 1.703v-1.39h-3.007v10.019h3.007v-5.418c0-1.145 1.049-2.262 2.363-2.262s1.638 1.117 1.638 2.234v5.445h2.996v-5.668c-0-3.937-1.864-4.663-3.319-4.663zM10.5 11c0.828 0 1.5-0.672 1.5-1.5s-0.672-1.5-1.5-1.5-1.5 0.672-1.5 1.5 0.672 1.5 1.5 1.5z"></path>
</symbol>
<!-- <symbol id="icon-email-black" viewBox="0 0 32 32">
<path d="M26.667 5.333h-21.333c-1.467 0-2.652 1.2-2.652 2.667l-0.014 16c0 1.467 1.2 2.667 2.667 2.667h21.333c1.467 0 2.667-1.2 2.667-2.667v-16c0-1.467-1.2-2.667-2.667-2.667zM26.133 11.001l-9.426 5.892c-0.201 0.126-0.446 0.2-0.708 0.2s-0.506-0.075-0.713-0.204l0.006 0.003-9.426-5.892c-0.336-0.201-0.557-0.562-0.557-0.975 0-0.625 0.507-1.132 1.132-1.132 0.233 0 0.449 0.070 0.629 0.19l-0.004-0.003 8.933 5.586 8.933-5.588c0.176-0.118 0.392-0.188 0.624-0.188 0.625 0 1.132 0.507 1.132 1.132 0 0.413-0.221 0.775-0.552 0.972l-0.005 0.003z"></path>
</symbol> -->
<symbol id="icon-email" viewBox="0 0 32 32">
<path fill="#77b3d4" style="fill: var(--color1, #77b3d4)" d="M32 16c0 8.837-7.163 16-16 16s-16-7.163-16-16c0-8.837 7.163-16 16-16s16 7.163 16 16z"></path>
<path fill="#231f20" style="fill: var(--color2, #231f20)" opacity="0.2" d="M16 6c-6.050 0-11 4.95-11 11s4.95 11 11 11c1.75 0 3.5-0.4 5.050-1.2 0.5-0.25 0.7-0.85 0.45-1.35s-0.85-0.7-1.35-0.45c-1.3 0.65-2.65 1-4.1 1-4.95 0-9-4.050-9-9s4.050-9 9-9 9 4.050 9 9c0 1.5-0.4 3-1.1 4.3-0.9-0.7-2.2-2.1-2.2-4.25v-4.4c0-0.55-0.45-1-1-1s-1 0.45-1 1v0.050c-1-0.85-2.3-1.4-3.7-1.4-3.15 0-5.7 2.55-5.7 5.7s2.5 5.7 5.65 5.7c1.85 0 3.5-0.9 4.55-2.3 1.15 2.1 3.1 3.15 3.2 3.2 0.45 0.25 1 0.1 1.3-0.3 1.3-1.85 1.95-4 1.95-6.3 0-6.050-4.95-11-11-11zM16 20.7c-2.050 0-3.7-1.65-3.7-3.7s1.65-3.7 3.7-3.7 3.7 1.65 3.7 3.7c0 2.050-1.65 3.7-3.7 3.7z"></path>
<path fill="#fff" style="fill: var(--color3, #fff)" d="M16 27c-6.050 0-11-4.95-11-11s4.95-11 11-11 11 4.95 11 11c0 2.25-0.7 4.45-1.95 6.3-0.3 0.4-0.85 0.55-1.3 0.3-0.15-0.1-4.050-2.1-4.050-6.55v-4.4c0-0.55 0.45-1 1-1s1 0.45 1 1v4.4c0 2.15 1.3 3.55 2.2 4.25 0.7-1.3 1.1-2.8 1.1-4.3 0-4.95-4.050-9-9-9s-9 4.050-9 9 4.050 9 9 9c1.45 0 2.85-0.35 4.1-1 0.5-0.25 1.1-0.050 1.35 0.45s0.050 1.1-0.45 1.35c-1.5 0.8-3.25 1.2-5 1.2z"></path>
<path fill="#fff" style="fill: var(--color3, #fff)" d="M16 12.3c2.050 0 3.7 1.65 3.7 3.7s-1.65 3.7-3.7 3.7-3.7-1.65-3.7-3.7 1.65-3.7 3.7-3.7zM16 10.3c-3.15 0-5.7 2.55-5.7 5.7s2.55 5.7 5.7 5.7 5.7-2.55 5.7-5.7-2.55-5.7-5.7-5.7v0z"></path>
</symbol>
<!-- <symbol id="icon-phone-black" viewBox="0 0 32 32">
<path d="M24.882 19.774l-3.268-0.373c-0.090-0.011-0.194-0.018-0.3-0.018-0.707 0-1.347 0.287-1.81 0.75l-2.368 2.368c-3.669-1.894-6.585-4.81-8.427-8.372l-0.051-0.108 2.382-2.377c0.463-0.463 0.75-1.103 0.75-1.81 0-0.106-0.006-0.21-0.019-0.312l0.001 0.012-0.373-3.243c-0.155-1.287-1.24-2.276-2.557-2.276-0.001 0-0.002 0-0.003 0h-2.226c-1.454 0-2.663 1.209-2.574 2.661 0.683 10.987 9.47 19.762 20.444 20.444 1.452 0.089 2.663-1.12 2.663-2.574v-2.226c0-0.004 0-0.008 0-0.012 0-1.308-0.985-2.386-2.253-2.532l-0.012-0.001z"></path>
</symbol> -->
<symbol id="icon-phone" viewBox="0 0 32 32">
<path fill="#77b3d4" style="fill: var(--color1, #77b3d4)" d="M32 16c0 8.837-7.163 16-16 16s-16-7.163-16-16c0-8.837 7.163-16 16-16s16 7.163 16 16z"></path>
<path fill="#231f20" style="fill: var(--color2, #231f20)" opacity="0.2" d="M14.5 12.65c-0.2-2.4-2.7-3.55-2.8-3.6-0.15-0.050-0.25-0.050-0.35-0.050-2.9 0.5-3.3 2.15-3.35 2.25 0 0.1 0 0.2 0 0.3 3.45 10.7 10.6 12.65 12.95 13.3 0.2 0.050 0.35 0.1 0.45 0.15 0.050 0 0.1 0.050 0.15 0.050 0.1 0 0.15 0 0.25-0.050 0.050-0.050 1.75-0.85 2.2-3.45 0-0.1 0-0.25-0.050-0.35-0.050-0.050-0.95-1.75-3.4-2.35-0.15-0.050-0.35 0-0.5 0.1-0.8 0.65-1.85 1.35-2.3 1.45-3.1-1.5-4.85-4.45-4.9-5-0.050-0.3 0.65-1.4 1.5-2.3 0.1-0.1 0.15-0.3 0.15-0.45z"></path>
<path fill="#fff" style="fill: var(--color3, #fff)" d="M14.5 11.65c-0.2-2.4-2.7-3.55-2.8-3.6-0.15-0.050-0.25-0.050-0.35-0.050-2.9 0.5-3.3 2.15-3.35 2.25 0 0.1 0 0.2 0 0.3 3.45 10.7 10.6 12.65 12.95 13.3 0.2 0.050 0.35 0.1 0.45 0.15 0.050 0 0.1 0.050 0.15 0.050 0.1 0 0.15 0 0.25-0.050 0.050-0.050 1.75-0.85 2.2-3.45 0-0.1 0-0.25-0.050-0.35-0.050-0.050-0.95-1.75-3.4-2.35-0.15-0.050-0.35 0-0.5 0.1-0.8 0.65-1.85 1.35-2.3 1.45-3.1-1.5-4.85-4.45-4.9-5-0.050-0.3 0.65-1.4 1.5-2.3 0.1-0.1 0.15-0.3 0.15-0.45z"></path>
</symbol>
<symbol id="icon-github" viewBox="0 0 32 32">
<path fill="77b3d4" style="fill: var(--color4, 77b3d4)" d="M15.999 0.333c-8.835 0-15.999 7.191-15.999 16.064 0 7.096 4.584 13.117 10.943 15.241 0.8 0.148 1.092-0.348 1.092-0.774 0-0.381-0.014-1.392-0.022-2.732-4.451 0.971-5.39-2.154-5.39-2.154-0.727-1.855-1.776-2.349-1.776-2.349-1.453-0.997 0.11-0.977 0.11-0.977 1.605 0.113 2.45 1.656 2.45 1.656 1.428 2.455 3.745 1.746 4.657 1.334 0.145-1.038 0.559-1.746 1.016-2.147-3.553-0.406-7.288-1.783-7.288-7.938 0-1.754 0.623-3.188 1.647-4.311-0.165-0.407-0.714-2.039 0.156-4.251 0 0 1.344-0.432 4.4 1.647 1.277-0.356 2.645-0.534 4.006-0.541 1.359 0.007 2.728 0.185 4.006 0.541 3.054-2.078 4.395-1.646 4.395-1.646 0.873 2.212 0.324 3.844 0.159 4.251 1.026 1.123 1.645 2.557 1.645 4.311 0 6.17-3.741 7.529-7.305 7.926 0.574 0.496 1.086 1.476 1.086 2.975 0 2.147-0.020 3.879-0.020 4.406 0 0.43 0.288 0.93 1.1 0.772 6.353-2.128 10.933-8.145 10.933-15.239 0-8.873-7.164-16.064-16.001-16.064z"></path>
</symbol>
</defs>
</svg>